
<global>
amp_veltrack=0
ampeg_release=0.35
</global>

<group>
group_label=PP
xf_cccurve=gain
xfin_hicc1=42
xfout_hicc1=85
xfout_locc1=42

<region>
end=372227
hikey=G#2
hivel=127
lokey=G2
loop_end=280833
loop_mode=loop_continuous
loop_start=100069
loop_xfade=45191
lovel=1
offset=2557
pitch_keycenter=G#2
sample=Basses_nonvib_PP_G#3.opus
</region>

<region>
end=353521
hikey=G#1
hivel=127
lokey=G1
loop_end=266720
loop_mode=loop_continuous
loop_start=95040
loop_xfade=42920
lovel=1
offset=136
pitch_keycenter=G#1
sample=Basses_nonvib_PP_G#2.opus
</region>

<region>
end=374400
hikey=C4
hivel=127
lokey=F3
loop_end=282472
loop_mode=loop_continuous
loop_start=100653
loop_xfade=45454
lovel=1
pitch_keycenter=F#3
sample=Basses_nonvib_PP_F#4.opus
</region>

<region>
end=374400
hikey=F#2
hivel=127
lokey=F2
loop_end=282472
loop_mode=loop_continuous
loop_start=100653
loop_xfade=45454
lovel=1
offset=1233
pitch_keycenter=F#2
sample=Basses_nonvib_PP_F#3.opus
</region>

<region>
end=371629
hikey=F#1
hivel=127
lokey=F1
loop_end=280381
loop_mode=loop_continuous
loop_start=99908
loop_xfade=45118
lovel=1
offset=4863
pitch_keycenter=F#1
sample=Basses_nonvib_PP_F#2.opus
</region>

<region>
end=373409
hikey=E3
hivel=127
lokey=D#3
loop_end=281724
loop_mode=loop_continuous
loop_start=100387
loop_xfade=45334
lovel=1
offset=13344
pitch_keycenter=E3
sample=Basses_nonvib_PP_E4.opus
</region>

<region>
end=361980
hikey=E2
hivel=127
lokey=D#2
loop_end=273102
loop_mode=loop_continuous
loop_start=97314
loop_xfade=43947
lovel=1
offset=4196
pitch_keycenter=E2
sample=Basses_nonvib_PP_E3.opus
</region>

<region>
end=374400
hikey=E1
hivel=127
lokey=D#1
loop_end=282472
loop_mode=loop_continuous
loop_start=100653
loop_xfade=45454
lovel=1
offset=12563
pitch_keycenter=E1
sample=Basses_nonvib_PP_E2.opus
</region>

<region>
end=330830
hikey=D3
hivel=127
lokey=C#3
loop_end=249600
loop_mode=loop_continuous
loop_start=88940
loop_xfade=40165
lovel=1
offset=1840
pitch_keycenter=D3
sample=Basses_nonvib_PP_D4.opus
</region>

<region>
end=372681
hikey=D2
hivel=127
lokey=C#2
loop_end=281175
loop_mode=loop_continuous
loop_start=100191
loop_xfade=45246
lovel=1
offset=19806
pitch_keycenter=D2
sample=Basses_nonvib_PP_D3.opus
</region>

<region>
end=374367
hikey=D1
hivel=127
lokey=C#1
loop_end=282447
loop_mode=loop_continuous
loop_start=100644
loop_xfade=45450
lovel=1
offset=11786
pitch_keycenter=D1
sample=Basses_nonvib_PP_D2.opus
</region>

<region>
end=346942
hikey=C3
hivel=127
lokey=B2
loop_end=261756
loop_mode=loop_continuous
loop_start=93271
loop_xfade=42121
lovel=1
offset=7527
pitch_keycenter=C3
sample=Basses_nonvib_PP_C4.opus
</region>

<region>
end=330721
hikey=C2
hivel=127
lokey=B1
loop_end=249518
loop_mode=loop_continuous
loop_start=88910
loop_xfade=40152
lovel=1
offset=3331
pitch_keycenter=C2
sample=Basses_nonvib_PP_C3.opus
</region>

<region>
end=365332
hivel=127
key=C1
loop_end=275631
loop_mode=loop_continuous
loop_start=98215
loop_xfade=44354
lovel=1
offset=13339
sample=Basses_nonvib_PP_C2.opus
</region>

<region>
end=374400
hikey=A#2
hivel=127
lokey=A2
loop_end=282472
loop_mode=loop_continuous
loop_start=100653
loop_xfade=45454
lovel=1
offset=21257
pitch_keycenter=A#2
sample=Basses_nonvib_PP_A#3.opus
</region>

<region>
end=349923
hikey=A#1
hivel=127
lokey=A1
loop_end=264005
loop_mode=loop_continuous
loop_start=94073
loop_xfade=42483
lovel=1
offset=4996
pitch_keycenter=A#1
sample=Basses_nonvib_PP_A#2.opus
</region>
</group>

<group>
group_label=MF
xf_cccurve=gain
xfin_hicc1=85
xfin_locc1=42
xfout_hicc1=127
xfout_locc1=85

<region>
end=352942
hikey=G#2
hivel=127
lokey=G2
loop_end=266283
loop_mode=loop_continuous
loop_start=94884
loop_xfade=42849
lovel=1
offset=10463
pitch_keycenter=G#2
sample=Basses_nonvib_MF_G#3.opus
</region>

<region>
end=332708
hikey=G#1
hivel=127
lokey=G1
loop_end=251017
loop_mode=loop_continuous
loop_start=89445
loop_xfade=40393
lovel=1
offset=463
pitch_keycenter=G#1
sample=Basses_nonvib_MF_G#2.opus
</region>

<region>
end=346953
hikey=C4
hivel=127
lokey=F3
loop_end=261764
loop_mode=loop_continuous
loop_start=93274
loop_xfade=42122
lovel=1
offset=13583
pitch_keycenter=F#3
sample=Basses_nonvib_MF_F#4.opus
</region>

<region>
end=329315
hikey=F#2
hivel=127
lokey=F2
loop_end=248457
loop_mode=loop_continuous
loop_start=88532
loop_xfade=39981
lovel=1
offset=98
pitch_keycenter=F#2
sample=Basses_nonvib_MF_F#3.opus
</region>

<region>
end=344733
hikey=F#1
hivel=127
lokey=F1
loop_end=260089
loop_mode=loop_continuous
loop_start=92677
loop_xfade=41853
lovel=1
offset=10426
pitch_keycenter=F#1
sample=Basses_nonvib_MF_F#2.opus
</region>

<region>
end=328241
hikey=E3
hivel=127
lokey=D#3
loop_end=247647
loop_mode=loop_continuous
loop_start=88244
loop_xfade=39850
lovel=1
offset=1795
pitch_keycenter=E3
sample=Basses_nonvib_MF_E4.opus
</region>

<region>
end=353793
hikey=E2
hivel=127
lokey=D#2
loop_end=266925
loop_mode=loop_continuous
loop_start=95113
loop_xfade=42953
lovel=1
offset=1013
pitch_keycenter=E2
sample=Basses_nonvib_MF_E3.opus
</region>

<region>
end=361123
hikey=E1
hivel=127
lokey=D#1
loop_end=272455
loop_mode=loop_continuous
loop_start=97084
loop_xfade=43842
lovel=1
pitch_keycenter=E1
sample=Basses_nonvib_MF_E2.opus
</region>

<region>
end=357929
hikey=D3
hivel=127
lokey=C#3
loop_end=270045
loop_mode=loop_continuous
loop_start=96225
loop_xfade=43455
lovel=1
offset=1914
pitch_keycenter=D3
sample=Basses_nonvib_MF_D4.opus
</region>

<region>
end=333550
hikey=D2
hivel=127
lokey=C#2
loop_end=251652
loop_mode=loop_continuous
loop_start=89671
loop_xfade=40495
lovel=1
offset=268
pitch_keycenter=D2
sample=Basses_nonvib_MF_D3.opus
</region>

<region>
end=363114
hikey=D1
hivel=127
lokey=C#1
loop_end=273957
loop_mode=loop_continuous
loop_start=97619
loop_xfade=44084
lovel=1
offset=12193
pitch_keycenter=D1
sample=Basses_nonvib_MF_D2.opus
</region>

<region>
end=343456
hikey=C3
hivel=127
lokey=B2
loop_end=259126
loop_mode=loop_continuous
loop_start=92334
loop_xfade=41698
lovel=1
pitch_keycenter=C3
sample=Basses_nonvib_MF_C4.opus
</region>

<region>
end=333109
hikey=C2
hivel=127
lokey=B1
loop_end=251319
loop_mode=loop_continuous
loop_start=89552
loop_xfade=40441
lovel=1
offset=263
pitch_keycenter=C2
sample=Basses_nonvib_MF_C3.opus
</region>

<region>
end=330907
hivel=127
key=C1
loop_end=249658
loop_mode=loop_continuous
loop_start=88960
loop_xfade=40174
lovel=1
offset=3620
sample=Basses_nonvib_MF_C2.opus
</region>

<region>
end=348467
hikey=A#2
hivel=127
lokey=A2
loop_end=262906
loop_mode=loop_continuous
loop_start=93681
loop_xfade=42306
lovel=1
pitch_keycenter=A#2
sample=Basses_nonvib_MF_A#3.opus
</region>

<region>
end=336073
hikey=A#1
hivel=127
lokey=A1
loop_end=253556
loop_mode=loop_continuous
loop_start=90349
loop_xfade=40801
lovel=1
offset=2470
pitch_keycenter=A#1
sample=Basses_nonvib_MF_A#2.opus
</region>
</group>

<group>
group_label=FF
xf_cccurve=gain
xfin_hicc1=127
xfin_locc1=85
xfout_hicc1=127
xfout_locc1=127

<region>
end=327949
hikey=G#2
hivel=127
lokey=G2
loop_end=247426
loop_mode=loop_continuous
loop_start=88165
loop_xfade=39815
lovel=1
offset=812
pitch_keycenter=G#2
sample=Basses_nonvib_FF_G#3.opus
</region>

<region>
end=310795
hikey=G#1
hivel=127
lokey=G1
loop_end=234484
loop_mode=loop_continuous
loop_start=83554
loop_xfade=37732
lovel=1
offset=1389
pitch_keycenter=G#1
sample=Basses_nonvib_FF_G#2.opus
</region>

<region>
end=321911
hikey=C4
hivel=127
lokey=F3
loop_end=242871
loop_mode=loop_continuous
loop_start=86542
loop_xfade=39082
lovel=1
pitch_keycenter=F#3
sample=Basses_nonvib_FF_F#4.opus
</region>

<region>
end=338145
hikey=F#2
hivel=127
lokey=F2
loop_end=255119
loop_mode=loop_continuous
loop_start=90906
loop_xfade=41053
lovel=1
offset=574
pitch_keycenter=F#2
sample=Basses_nonvib_FF_F#3.opus
</region>

<region>
end=316709
hikey=F#1
hivel=127
lokey=F1
loop_end=238946
loop_mode=loop_continuous
loop_start=85143
loop_xfade=38450
lovel=1
pitch_keycenter=F#1
sample=Basses_nonvib_FF_F#2.opus
</region>

<region>
end=321601
hikey=E3
hivel=127
lokey=D#3
loop_end=242637
loop_mode=loop_continuous
loop_start=86459
loop_xfade=39044
lovel=1
pitch_keycenter=E3
sample=Basses_nonvib_FF_E4.opus
</region>

<region>
end=335485
hikey=E2
hivel=127
lokey=D#2
loop_end=253112
loop_mode=loop_continuous
loop_start=90191
loop_xfade=40730
lovel=1
offset=471
pitch_keycenter=E2
sample=Basses_nonvib_FF_E3.opus
</region>

<region>
end=323035
hikey=E1
hivel=127
lokey=D#1
loop_end=243719
loop_mode=loop_continuous
loop_start=86844
loop_xfade=39218
lovel=1
offset=700
pitch_keycenter=E1
sample=Basses_nonvib_FF_E2.opus
</region>

<region>
end=325712
hikey=D3
hivel=127
lokey=C#3
loop_end=245739
loop_mode=loop_continuous
loop_start=87564
loop_xfade=39543
lovel=1
offset=403
pitch_keycenter=D3
sample=Basses_nonvib_FF_D4.opus
</region>

<region>
end=319268
hikey=D2
hivel=127
lokey=C#2
loop_end=240877
loop_mode=loop_continuous
loop_start=85831
loop_xfade=38761
lovel=1
offset=3466
pitch_keycenter=D2
sample=Basses_nonvib_FF_D3.opus
</region>

<region>
end=326802
hikey=D1
hivel=127
lokey=C#1
loop_end=246561
loop_mode=loop_continuous
loop_start=87857
loop_xfade=39676
lovel=1
offset=291
pitch_keycenter=D1
sample=Basses_nonvib_FF_D2.opus
</region>

<region>
end=316980
hikey=C3
hivel=127
lokey=B2
loop_end=239151
loop_mode=loop_continuous
loop_start=85216
loop_xfade=38483
lovel=1
offset=997
pitch_keycenter=C3
sample=Basses_nonvib_FF_C4.opus
</region>

<region>
end=315899
hikey=C2
hivel=127
lokey=B1
loop_end=238335
loop_mode=loop_continuous
loop_start=84926
loop_xfade=38352
lovel=1
offset=272
pitch_keycenter=C2
sample=Basses_nonvib_FF_C3.opus
</region>

<region>
end=313820
hivel=127
key=C1
loop_end=236766
loop_mode=loop_continuous
loop_start=84367
loop_xfade=38099
lovel=1
offset=1020
sample=Basses_nonvib_FF_C2.opus
</region>

<region>
end=332766
hikey=A#2
hivel=127
lokey=A2
loop_end=251061
loop_mode=loop_continuous
loop_start=89460
loop_xfade=40400
lovel=1
pitch_keycenter=A#2
sample=Basses_nonvib_FF_A#3.opus
</region>

<region>
end=315170
hikey=A#1
hivel=127
lokey=A1
loop_end=237785
loop_mode=loop_continuous
loop_start=84730
loop_xfade=38263
lovel=1
offset=1993
pitch_keycenter=A#1
sample=Basses_nonvib_FF_A#2.opus
</region>
</group>